<?xml version="1.0" standalone="no"?>
<!DOCTYPE svg PUBLIC "-//W3C//DTD SVG 20010904//EN"
 "http://www.w3.org/TR/2001/REC-SVG-20010904/DTD/svg10.dtd">
<svg version="1.0" xmlns="http://www.w3.org/2000/svg"
 width="270.000000pt" height="270.000000pt" viewBox="0 0 270.000000 270.000000"
 preserveAspectRatio="xMidYMid meet">
<metadata>
Created by potrace 1.11, written by Peter Selinger 2001-2013
</metadata>
<g transform="translate(0.000000,270.000000) scale(0.100000,-0.100000)"
fill="#000000" stroke="none">
<path d="M1160 2684 c-179 -32 -293 -69 -431 -141 -648 -334 -912 -1124 -594
-1778 71 -148 157 -265 280 -384 261 -251 566 -374 930 -374 224 0 397 39 593
135 276 134 488 350 623 632 208 437 162 961 -121 1358 -76 107 -229 256 -334
327 -120 81 -287 158 -423 193 -109 28 -133 31 -308 34 -104 1 -201 0 -215 -2z
m-399 -921 c93 -42 153 -117 166 -208 l6 -45 -84 0 -85 0 -14 42 c-21 57 -56
81 -130 86 -79 6 -122 -3 -154 -33 -34 -31 -36 -85 -4 -115 24 -22 27 -23 215
-69 141 -35 188 -56 231 -106 38 -43 47 -72 46 -150 -1 -136 -104 -232 -272
-256 -81 -12 -193 2 -263 32 -87 38 -159 139 -159 223 l0 26 83 0 84 0 11 -38
c7 -21 21 -47 31 -56 66 -60 228 -60 287 -1 17 17 24 35 24 63 0 63 -21 74
-224 122 -221 52 -280 103 -281 245 0 120 60 205 177 247 74 26 243 21 309 -9z
m929 -68 l0 -75 -125 0 -125 0 0 -345 0 -345 -90 0 -90 0 0 345 0 345 -125 0
-125 0 0 75 0 75 340 0 340 0 0 -75z m720 0 l0 -75 -220 0 -220 0 0 -90 0 -90
205 0 206 0 -3 -72 -3 -73 -202 -3 -203 -2 0 -105 0 -105 230 0 230 0 0 -75 0
-75 -320 0 -320 0 0 413 c0 228 3 417 7 420 3 4 143 7 310 7 l303 0 0 -75z"/>
</g>
</svg>
